/* XPM */
static char *_8754_c0486aa368ae774421e0379f9c4e8ae400807448cca2c07491e32aa75896cb68[] = {
/* columns rows colors chars-per-pixel */
"16 16 8 1 ",
"  c #645B5B",
". c #726B69",
"X c #817F7F",
"o c #89817E",
"O c #968E8E",
"+ c #979797",
"@ c #B1A2A2",
"# c #B0AEAE",
/* pixels */
"X+X+. XXoX.XX++.",
"+oooX .X.oXX.XX+",
"+o.+oXX+oo.o .XX",
"XXoX.+XX+.XoXoXX",
"Xo+X .XXX..O@Xo.",
".XX++#X+oo. O.X ",
"XX. o++.+#XXO .o",
"o+XX..oXX+o+Xo++",
"X.#+X .ooXX.X+o+",
"Xo.XXoX+.X+#..oX",
" +Xo.X+X .o++oX.",
".X+XXo..X#+oo+XX",
"+X++.O@o+XXXXo.X",
"X+.XXXOXoX+X .oo",
"+o .ooOX..ooXo+o",
".++XX.XoXX .+X+X"
};
