/* XPM */
static char *_320_d7a0b4fbb015273660cfe8b21595c1c2a0e15c15963d9b039166ae58badb948b[] = {
/* columns rows colors chars-per-pixel */
"16 16 5 1 ",
"  c #6B9DFB",
". c #6CA3FD",
"X c #74ABFE",
"o c #8EB8FE",
"O c #A9C8FF",
/* pixels */
"..XoOoX  .XXX.. ",
"  ..X..   OoX...",
"  .....X. XoX. .",
". . .XooX .o.  .",
"..  XOoXX .X. .X",
"X. .ooOoX  . XXX",
"X  XoooXo   ooXX",
". .oooXX..  XOoX",
". XooXXX..X. oOo",
"..XXo.XX..XX .X.",
" .X.X.XX. X.  X.",
"   .X.X.   .. ..",
" .. .. .  .XXX. ",
"....XX.  .XXXXX ",
"...XooX  XXXXXoX",
".XooXXoX XXooX.."
};
