/* XPM */
static char *_5171_272ebc0f40d294a01fd83fd3fb083ccb2fe7cb05684e9d0886fb268d4c75c22a[] = {
/* columns rows colors chars-per-pixel */
"16 16 69 1 ",
"  c #302116",
". c #372619",
"X c #3B291B",
"o c #3C291B",
"O c #422E1F",
"+ c #442E1F",
"@ c #452F20",
"# c #453020",
"$ c #473121",
"% c #483222",
"& c #4A3322",
"* c #4C3423",
"= c #4E3725",
"- c #4F3725",
"; c #533926",
": c #523927",
"> c #553A27",
", c #523B28",
"< c #543B28",
"1 c #573C28",
"2 c #563C29",
"3 c #583C28",
"4 c #593D29",
"5 c #5C412C",
"6 c #5E422D",
"7 c #5F422D",
"8 c #5E432E",
"9 c #5A4434",
"0 c #61442E",
"q c #654730",
"w c #644832",
"e c #6E4D34",
"r c #6F4E35",
"t c #705037",
"y c #735137",
"u c #745137",
"i c #725238",
"p c #765338",
"a c #775339",
"s c #785439",
"d c #79553A",
"f c #79573B",
"g c #7E5A3E",
"h c #7E5B3E",
"j c gray33",
"k c gray39",
"l c #676767",
"z c #6C6C6C",
"x c #805C3F",
"c c #825E40",
"v c #866142",
"b c #876142",
"n c #896343",
"m c #8B6445",
"M c #906847",
"N c #936A48",
"B c #946A49",
"V c #956B4A",
"C c #966C4A",
"Z c #986D4B",
"A c #A17450",
"S c #A27550",
"D c #A37551",
"F c #A87853",
"G c #AE7D56",
"H c #AF7D57",
"J c #B6835A",
"K c #B8845B",
"L c #B9855C",
/* pixels */
"5dwfC4LCLdLCNsLq",
"iOLKFddd44CDd,Ld",
"dl,iCLm$dL3;d5Ow",
"4d84+gCkdCwdCdif",
"ZK0dsqd:doMdzr&C",
"iiLd&H.5wrd5dsu4",
"CCOOndSwidCeJmsL",
"4OiiddC,CCddsh1C",
"+dtdi:acC,LddBCL",
"d41Od#Cd4lbdr;Cd",
"CL2GLsCOdO5V+d-L",
"8qACCddhZ64C<LlC",
"yLxtdC&dd7C>Mv=N",
"CCd9q%id4XCdCC@s",
"4d 7L*dCLspjdddL",
"qLsNCLdLCL4Cfwd5"
};
